<?xml version="1.0" standalone="no"?>
<!DOCTYPE svg PUBLIC "-//W3C//DTD SVG 20010904//EN"
    "http://www.w3.org/TR/2001/REC-SVG-20010904/DTD/svg10.dtd">
<svg version="1.0" xmlns="http://www.w3.org/2000/svg"
    width="248.000000pt" height="248.000000pt" viewBox="0 0 248.000000 248.000000"
    preserveAspectRatio="xMidYMid meet">
<metadata>
Created by potrace 1.15, written by Peter Selinger 2001-2017
</metadata><g><rect x="0" y="0" width="248" height="248" fill="#e4e4e4" />
<g transform="translate(0.000000,248.000000) scale(0.050000,-0.050000)"
fill="#000000" stroke="none">
<path d="M480 3920 l0 -560 560 0 560 0 0 560 0 560 -560 0 -560 0 0 -560z
m960 0 l0 -400 -400 0 -400 0 0 400 0 400 400 0 400 0 0 -400z"/>
<path d="M800 3920 l0 -240 240 0 240 0 0 240 0 240 -240 0 -240 0 0 -240z"/>
<path d="M1920 4400 l0 -80 -80 0 -80 0 0 -160 0 -160 80 0 80 0 0 -80 0 -80
-80 0 -80 0 0 -320 0 -320 -160 0 -160 0 0 -80 0 -80 160 0 160 0 0 -160 0
-160 80 0 80 0 0 -80 0 -80 -240 0 -240 0 0 80 0 80 80 0 80 0 0 80 0 80 -160
0 -160 0 0 80 0 80 -80 0 -80 0 0 80 0 80 -80 0 -80 0 0 -80 0 -80 -80 0 -80
0 0 80 0 80 -160 0 -160 0 0 -80 0 -80 160 0 160 0 0 -80 0 -80 80 0 80 0 0
-80 0 -80 -160 0 -160 0 0 -240 0 -240 -80 0 -80 0 0 -80 0 -80 80 0 80 0 0
-80 0 -80 -80 0 -80 0 0 -80 0 -80 240 0 240 0 0 160 0 160 -160 0 -160 0 0
80 0 80 80 0 80 0 0 160 0 160 80 0 80 0 0 -80 0 -80 80 0 80 0 0 80 0 80 160
0 160 0 0 -80 0 -80 -80 0 -80 0 0 -80 0 -80 80 0 80 0 0 -80 0 -80 -160 0
-160 0 0 -80 0 -80 80 0 80 0 0 -80 0 -80 240 0 240 0 0 -160 0 -160 80 0 80
0 0 160 0 160 80 0 80 0 0 -240 0 -240 -80 0 -80 0 0 -80 0 -80 -80 0 -80 0 0
-80 0 -80 80 0 80 0 0 80 0 80 80 0 80 0 0 -80 0 -80 80 0 80 0 0 80 0 80 80
0 80 0 0 -80 0 -80 80 0 80 0 0 -80 0 -80 -400 0 -400 0 0 -160 0 -160 480 0
480 0 0 80 0 80 80 0 80 0 0 -80 0 -80 160 0 160 0 0 80 0 80 160 0 160 0 0
-80 0 -80 80 0 80 0 0 80 0 80 -80 0 -80 0 0 80 0 80 160 0 160 0 0 -80 0 -80
80 0 80 0 0 80 0 80 80 0 80 0 0 160 0 160 -80 0 -80 0 0 80 0 80 240 0 240 0
0 240 0 240 -80 0 -80 0 0 -80 0 -80 -80 0 -80 0 0 -80 0 -80 -80 0 -80 0 0
160 0 160 80 0 80 0 0 80 0 80 80 0 80 0 0 80 0 80 80 0 80 0 0 240 0 240
-160 0 -160 0 0 -80 0 -80 -80 0 -80 0 0 80 0 80 -80 0 -80 0 0 80 0 80 -80 0
-80 0 0 -80 0 -80 -80 0 -80 0 0 240 0 240 160 0 160 0 0 80 0 80 -240 0 -240
0 0 -160 0 -160 -80 0 -80 0 0 80 0 80 -80 0 -80 0 0 -160 0 -160 -80 0 -80 0
0 -80 0 -80 80 0 80 0 0 -80 0 -80 160 0 160 0 0 -240 0 -240 -80 0 -80 0 0
80 0 80 -240 0 -240 0 0 80 0 80 -80 0 -80 0 0 80 0 80 80 0 80 0 0 160 0 160
-80 0 -80 0 0 -80 0 -80 -80 0 -80 0 0 80 0 80 -240 0 -240 0 0 80 0 80 80 0
80 0 0 80 0 80 -160 0 -160 0 0 80 0 80 80 0 80 0 0 240 0 240 80 0 80 0 0
-240 0 -240 80 0 80 0 0 240 0 240 80 0 80 0 0 -400 0 -400 80 0 80 0 0 80 0
80 160 0 160 0 0 80 0 80 -160 0 -160 0 0 160 0 160 80 0 80 0 0 -80 0 -80 80
0 80 0 0 80 0 80 80 0 80 0 0 -160 0 -160 80 0 80 0 0 160 0 160 -80 0 -80 0
0 80 0 80 80 0 80 0 0 80 0 80 -160 0 -160 0 0 80 0 80 80 0 80 0 0 80 0 80
80 0 80 0 0 160 0 160 -640 0 -640 0 0 -80z m320 -240 l0 -160 80 0 80 0 0 80
0 80 80 0 80 0 0 80 0 80 80 0 80 0 0 -320 0 -320 80 0 80 0 0 -80 0 -80 -80
0 -80 0 0 80 0 80 -160 0 -160 0 0 80 0 80 -80 0 -80 0 0 -80 0 -80 -80 0 -80
0 0 160 0 160 -80 0 -80 0 0 160 0 160 160 0 160 0 0 -160z m-1120 -1200 l0
-80 -80 0 -80 0 0 80 0 80 80 0 80 0 0 -80z m0 -320 l0 -80 -80 0 -80 0 0 80
0 80 80 0 80 0 0 -80z m2080 0 l0 -80 -80 0 -80 0 0 80 0 80 80 0 80 0 0 -80z
m-1120 -160 l0 -80 80 0 80 0 0 80 0 80 80 0 80 0 0 -160 0 -160 -80 0 -80 0
0 -80 0 -80 80 0 80 0 0 -80 0 -80 -80 0 -80 0 0 80 0 80 -160 0 -160 0 0
-160 0 -160 -80 0 -80 0 0 80 0 80 -160 0 -160 0 0 80 0 80 80 0 80 0 0 80 0
80 -80 0 -80 0 0 80 0 80 80 0 80 0 0 -80 0 -80 160 0 160 0 0 160 0 160 80 0
80 0 0 -80z m1760 -80 l0 -160 80 0 80 0 0 -80 0 -80 80 0 80 0 0 160 0 160
80 0 80 0 0 -160 0 -160 -80 0 -80 0 0 -80 0 -80 -160 0 -160 0 0 160 0 160
-80 0 -80 0 0 160 0 160 80 0 80 0 0 -160z m-160 -400 l0 -80 -80 0 -80 0 0
80 0 80 80 0 80 0 0 -80z m-640 -160 l0 -80 -240 0 -240 0 0 -80 0 -80 80 0
80 0 0 -160 0 -160 -80 0 -80 0 0 -80 0 -80 -80 0 -80 0 0 80 0 80 -80 0 -80
0 0 -80 0 -80 -80 0 -80 0 0 80 0 80 80 0 80 0 0 160 0 160 80 0 80 0 0 80 0
80 80 0 80 0 0 80 0 80 240 0 240 0 0 -80z m640 -320 l0 -240 -240 0 -240 0 0
240 0 240 240 0 240 0 0 -240z m-640 -240 l0 -160 80 0 80 0 0 -80 0 -80 80 0
80 0 0 80 0 80 80 0 80 0 0 -160 0 -160 -160 0 -160 0 0 80 0 80 -80 0 -80 0
0 80 0 80 -80 0 -80 0 0 160 0 160 80 0 80 0 0 -160z m-160 -400 l0 -80 -80 0
-80 0 0 80 0 80 80 0 80 0 0 -80z m1120 0 l0 -80 -80 0 -80 0 0 80 0 80 80 0
80 0 0 -80z"/>
<path d="M2400 1520 l0 -80 80 0 80 0 0 80 0 80 -80 0 -80 0 0 -80z"/>
<path d="M3360 1520 l0 -80 80 0 80 0 0 80 0 80 -80 0 -80 0 0 -80z"/>
<path d="M3360 3920 l0 -560 560 0 560 0 0 560 0 560 -560 0 -560 0 0 -560z
m960 0 l0 -400 -400 0 -400 0 0 400 0 400 400 0 400 0 0 -400z"/>
<path d="M3680 3920 l0 -240 240 0 240 0 0 240 0 240 -240 0 -240 0 0 -240z"/>
<path d="M4000 3120 l0 -80 160 0 160 0 0 -80 0 -80 -80 0 -80 0 0 -80 0 -80
160 0 160 0 0 160 0 160 -80 0 -80 0 0 80 0 80 -160 0 -160 0 0 -80z"/>
<path d="M480 1040 l0 -560 560 0 560 0 0 560 0 560 -560 0 -560 0 0 -560z
m960 0 l0 -400 -400 0 -400 0 0 400 0 400 400 0 400 0 0 -400z"/>
<path d="M800 1040 l0 -240 240 0 240 0 0 240 0 240 -240 0 -240 0 0 -240z"/>
<path d="M4320 880 l0 -80 80 0 80 0 0 80 0 80 -80 0 -80 0 0 -80z"/>
<path d="M4160 560 l0 -80 160 0 160 0 0 80 0 80 -160 0 -160 0 0 -80z"/>
</g>
</g></svg>
